<svg width="143" height="41" viewBox="0 0 143 41" fill="none" xmlns="http://www.w3.org/2000/svg">
<path d="M54.69 33.7451C53.501 33.5479 52.4979 33.2943 52.4979 32.418C52.4979 31.4375 53.594 31.0346 54.6224 31.0346C55.524 31.0458 56.4567 31.3699 56.8962 32.0743L57.657 31.6009C56.9413 30.3781 55.8002 30.1357 54.5999 30.1357C53.2023 30.1357 51.4836 30.7134 51.5061 32.3983C51.5061 34.0382 53.0192 34.396 54.5745 34.6383C55.7861 34.8215 56.9159 35.1117 56.9047 36.1147C56.9047 37.3038 55.6001 37.6137 54.6196 37.6137C53.6391 37.6137 52.543 37.1516 52.0246 36.1936L51.1934 36.6783C51.8161 38.0279 53.177 38.5463 54.6083 38.5463C56.1552 38.5463 57.8852 37.9575 57.8965 36.1457C57.8965 34.3227 56.3045 33.9987 54.6872 33.7451H54.69Z" fill="white"/>
<path d="M63.2049 37.5516C61.0241 37.5516 60.021 36.0159 59.9956 34.3789C59.9844 32.7052 61.0325 31.1358 63.2049 31.1358C64.0248 31.1358 64.8448 31.4232 65.4675 32.0375L66.1606 31.3922C65.3407 30.5836 64.2784 30.1807 63.2077 30.1807C60.3676 30.1807 58.9728 32.2572 58.9954 34.393C59.0067 36.54 60.3563 38.5124 63.2077 38.5124C64.315 38.5124 65.3886 38.1207 66.2085 37.3121L65.5041 36.6189C64.8927 37.2303 64.0277 37.5544 63.2077 37.5544L63.2049 37.5516Z" fill="white"/>
<path d="M73.3005 33.8013H68.6852V30.3047H67.6821V38.3828H68.6852V34.7368H73.3005V38.3828H74.3063V30.3047H73.3005V33.8013Z" fill="white"/>
<path d="M80.0627 30.167C77.5128 30.167 75.9434 32.0238 75.9434 34.3681C75.9434 36.4926 77.2817 38.5466 80.0514 38.5466C82.8212 38.5466 84.137 36.4813 84.1483 34.3681C84.1595 32.2323 82.7986 30.1783 80.0627 30.167ZM80.0627 37.5999C77.9411 37.5999 76.9464 36.0079 76.9464 34.3681C76.9464 32.6014 78.0087 31.0912 80.0627 31.0912C82.1731 31.1137 83.1565 32.731 83.1424 34.3681C83.1424 35.96 82.1844 37.5999 80.0627 37.5999Z" fill="white"/>
<path d="M86.7912 30.3047H85.7881V38.3828H91.1867V37.4473H86.7912V30.3047Z" fill="white"/>
<path d="M95.2133 30.3047L91.5898 38.3828H92.6859L93.472 36.6049H98.0873L98.8847 38.3828H99.9694L96.346 30.3047H95.2161H95.2133ZM93.8637 35.6807L95.7796 31.319L97.6956 35.6807H93.8637Z" fill="white"/>
<path d="M107.642 32.8884C107.642 31.5726 106.729 30.3047 104.906 30.3047H101.237V38.3828H102.24V35.475H104.201L106.718 38.3828H107.988L105.323 35.3933C106.985 35.2552 107.653 34.1113 107.642 32.8884ZM102.24 34.5734V31.2035H104.906C106.072 31.2035 106.647 32.1051 106.636 32.911C106.636 33.8239 106.07 34.5734 104.858 34.5734H102.238H102.24Z" fill="white"/>
<path d="M112.316 33.7451C111.127 33.5479 110.124 33.2943 110.124 32.418C110.124 31.4375 111.22 31.0346 112.248 31.0346C113.15 31.0458 114.083 31.3699 114.522 32.0743L115.283 31.6009C114.567 30.3781 113.426 30.1357 112.226 30.1357C110.828 30.1357 109.11 30.7134 109.132 32.3983C109.132 34.0382 110.645 34.396 112.2 34.6383C113.412 34.8215 114.542 35.1117 114.531 36.1147C114.531 37.3038 113.226 37.6137 112.246 37.6137C111.265 37.6137 110.169 37.1516 109.651 36.1936L108.819 36.6783C109.442 38.0279 110.803 38.5463 112.234 38.5463C113.781 38.5463 115.511 37.9575 115.522 36.1457C115.522 34.3227 113.93 33.9987 112.313 33.7451H112.316Z" fill="white"/>
<path d="M122.736 33.8013H118.12V30.3047H117.117V38.3828H118.12V34.7368H122.736V38.3828H123.739V30.3047H122.736V33.8013Z" fill="white"/>
<path d="M126.889 30.3047H125.886V38.3828H126.889V30.3047Z" fill="white"/>
<path d="M132.704 30.3047H129.036V38.3828H130.027V35.7737H132.704C136.421 35.7624 136.421 30.3047 132.704 30.3047ZM132.704 34.8382H130.027V31.2373H132.704C135.082 31.2373 135.082 34.8382 132.704 34.8382Z" fill="white"/>
<path d="M139.791 33.7451C138.602 33.5479 137.599 33.2943 137.599 32.418C137.599 31.4375 138.695 31.0346 139.723 31.0346C140.625 31.0458 141.557 31.3699 141.997 32.0743L142.758 31.6009C142.042 30.3781 140.901 30.1357 139.7 30.1357C138.303 30.1357 136.584 30.7134 136.607 32.3983C136.607 34.0382 138.12 34.396 139.675 34.6383C140.887 34.8215 142.017 35.1117 142.005 36.1147C142.005 37.3038 140.701 37.6137 139.72 37.6137C138.74 37.6137 137.644 37.1516 137.125 36.1936L136.294 36.6783C136.917 38.0279 138.278 38.5463 139.709 38.5463C141.256 38.5463 142.986 37.9575 142.997 36.1457C142.997 34.3227 141.405 33.9987 139.788 33.7451H139.791Z" fill="white"/>
<path d="M67.0709 15.6395C66.5496 14.8365 65.8903 14.1941 65.0985 13.7151C64.304 13.2361 63.4531 12.867 62.5401 12.6077C61.6272 12.3457 60.7735 12.0865 59.9817 11.8244C59.1872 11.5624 58.5307 11.2496 58.0094 10.8777C57.4882 10.5086 57.2261 9.97607 57.2261 9.28012C57.2261 8.84621 57.336 8.4771 57.553 8.1728C57.7699 7.86849 58.0517 7.62336 58.4011 7.44021C58.7476 7.25707 59.1167 7.119 59.5084 7.03165C59.9 6.94431 60.2804 6.90205 60.6495 6.90205C61.2807 6.90205 61.9484 7.02603 62.6557 7.2768C63.3629 7.52756 63.9208 7.91357 64.335 8.43483L67.8232 4.61977C66.8455 3.75195 65.7466 3.13208 64.5294 2.76015C63.3122 2.39104 62.0527 2.20508 60.7481 2.20508C59.6183 2.20508 58.5194 2.36286 57.4543 2.67844C56.3893 2.99401 55.4482 3.46737 54.6339 4.0957C53.8196 4.72685 53.1659 5.51014 52.6785 6.44277C52.1882 7.37822 51.9459 8.46301 51.9459 9.70276C51.9459 10.9425 52.2107 12.0189 52.7433 12.7993C53.2758 13.5826 53.9436 14.2138 54.7494 14.6899C55.5524 15.1689 56.4231 15.5493 57.3585 15.8311C58.294 16.1129 59.1618 16.3974 59.9677 16.6792C60.7707 16.9609 61.4385 17.3047 61.9738 17.7076C62.5063 18.1105 62.7712 18.66 62.7712 19.3531C62.7712 19.7673 62.6669 20.1251 62.4612 20.4294C62.2556 20.7337 61.9823 20.9845 61.647 21.1789C61.3088 21.3734 60.9313 21.5227 60.5058 21.6185C60.0832 21.7171 59.6634 21.765 59.252 21.765C58.4039 21.765 57.5839 21.5762 56.7894 21.1958C55.9948 20.8155 55.3383 20.2773 54.817 19.5813L51.1992 23.5598C52.3065 24.5826 53.504 25.3208 54.7861 25.7773C56.0681 26.2337 57.46 26.462 58.9589 26.462C60.1536 26.462 61.2891 26.3098 62.3655 26.0055C63.4418 25.7012 64.3857 25.2335 65.2028 24.6052C66.0171 23.974 66.6651 23.1823 67.1413 22.2243C67.6203 21.2691 67.8598 20.1505 67.8598 18.8657C67.8598 17.5188 67.5978 16.4425 67.0765 15.6395H67.0709Z" fill="white"/>
<path d="M87.738 25.8787H93.4775L83.4355 2.79395H79.2288L69.2544 25.8787H74.8615L81.187 9.51115L87.738 25.8787Z" fill="white"/>
<path d="M137.26 25.8787H143L132.958 2.79395H128.751L118.777 25.8787H124.384L130.709 9.51115L137.26 25.8787Z" fill="white"/>
<path d="M109.219 16.8792H111.8V20.6295C111.321 20.8915 110.682 21.1451 109.876 21.3959C109.07 21.6467 108.115 21.7706 107.008 21.7706C105.9 21.7706 104.937 21.5875 104.058 21.2156C103.178 20.8465 102.423 20.3308 101.792 19.6659C101.161 19.0037 100.679 18.2204 100.341 17.3188C100.003 16.4172 99.8367 15.4225 99.8367 14.3349C99.8367 13.2473 100.006 12.2809 100.341 11.368C100.676 10.4551 101.161 9.66895 101.792 9.00399C102.423 8.34185 103.178 7.82622 104.058 7.4543C104.937 7.08519 105.92 6.89923 107.008 6.89923C108.312 6.89923 109.397 7.08519 110.268 7.4543C111.135 7.82341 111.919 8.36721 112.615 9.0857L116.201 5.17203C115.027 4.08443 113.663 3.31804 112.11 2.87285C110.555 2.42767 108.856 2.20508 107.008 2.20508C105.159 2.20508 103.539 2.48683 102.02 3.05318C100.499 3.61952 99.1831 4.42817 98.0757 5.48196C96.9684 6.53575 96.1034 7.81214 95.4835 9.31393C94.8636 10.8129 94.5537 12.4866 94.5537 14.3349C94.5537 16.1833 94.8636 17.857 95.4835 19.3559C96.1034 20.8549 96.9656 22.1313 98.0757 23.1851C99.1831 24.2389 100.499 25.0503 102.02 25.6139C103.542 26.1802 105.204 26.462 107.008 26.462C108.704 26.462 110.366 26.2873 111.995 25.9407C113.626 25.5941 115.19 25.0278 116.689 24.2445V12.1823H109.217V16.8764L109.219 16.8792Z" fill="white"/>
<path d="M5.99602 18.2513C7.08081 10.6324 14.0882 5.16344 21.7465 5.90165C21.7803 5.90447 21.817 5.90728 21.8508 5.91292L16.7312 11.103C14.4602 13.4022 14.4855 17.1073 16.7875 19.3783L28.0073 8.0036L32.1886 3.76589C32.1661 3.74899 32.1407 3.73208 32.1182 3.718C31.966 3.60811 31.8082 3.50386 31.6505 3.3996C31.6166 3.37706 31.58 3.3517 31.5462 3.32916C31.3602 3.20801 31.1715 3.08966 30.9827 2.97414C30.9545 2.95724 30.9292 2.94033 30.901 2.92343C30.715 2.81072 30.529 2.70365 30.3403 2.5994C30.3065 2.57968 30.2698 2.55995 30.236 2.54022C30.0641 2.44443 29.8894 2.35427 29.7176 2.2641C29.664 2.23593 29.6105 2.20493 29.5542 2.17957C29.4076 2.10631 29.2583 2.03588 29.1118 1.96544C29.0273 1.92599 28.9427 1.88373 28.8582 1.84428C28.7455 1.79356 28.6328 1.74566 28.5173 1.69494C28.3933 1.6414 28.2721 1.58506 28.1482 1.53434C28.0777 1.50616 28.0073 1.4808 27.9397 1.45263C27.5339 1.28921 27.1254 1.13705 26.7084 1.00181C24.2458 0.195967 21.5746 -0.1506 18.7993 0.060722C8.82773 0.815844 0.791882 8.87706 0.0564826 18.8486C-0.335167 24.1796 1.33286 29.1245 4.34771 32.9621L4.54213 32.762L4.68583 32.6155C6.73142 30.5417 7.38229 27.51 6.51164 24.7318C5.88331 22.7257 5.67763 20.5335 6.00166 18.2625L5.99602 18.2513Z" fill="white"/>
<path d="M36.1022 8.00389L36.0459 8.06024C33.9946 10.1396 33.3494 13.1827 34.237 15.9637C34.8794 17.9754 35.0935 20.176 34.7751 22.4583C33.7101 30.094 26.6942 35.5884 19.019 34.8502C18.9852 34.8474 18.9486 34.8445 18.9147 34.8389L28.1453 25.4816C25.8461 23.2134 22.1409 23.2388 19.8727 25.5408L12.7611 32.7511L10.6957 34.8445L8.58252 36.9888C10.2393 38.175 12.0848 39.1132 14.06 39.7613C16.562 40.5812 19.2867 40.925 22.1099 40.6911C32.0956 39.8684 40.0807 31.7254 40.7288 21.7285C41.0725 16.4342 39.3848 11.5344 36.3699 7.7334L36.105 8.00107L36.1022 8.00389Z" fill="white"/>
</svg>
